<svg xmlns="http://www.w3.org/2000/svg" width="42" height="42" viewBox="0 0 42 42">
    <path fill="#FF9800" fill-rule="nonzero" d="M40.052 27.236a1.914 1.914 0 0 0-1.564.819c-.84.107-1.545-.065-1.975-.82v-3.52a1.638 1.638 0 0 0-1.627-1.648h-2.235c.121.358.184.733.184 1.11a3.4 3.4 0 0 1-3.36 3.44 3.4 3.4 0 0 1-3.43-3.44c0-.378.063-.752.185-1.11h-2.236a1.638 1.638 0 0 0-1.626 1.648v3.52c-.444.78-1.183.937-2.058.807a1.907 1.907 0 0 0-1.482-.718 1.95 1.95 0 0 0-1.92 1.98 1.95 1.95 0 0 0 1.92 1.926 1.914 1.914 0 0 0 1.565-.82c.839-.105 1.545.065 1.975.82v3.52a1.638 1.638 0 0 0 1.626 1.648h3.634c.589.456.708 1.143.594 1.943a1.933 1.933 0 0 0-.261 2.715 1.92 1.92 0 0 0 2.707.262 1.934 1.934 0 0 0-.108-3.06c-.095-.765.035-1.418.603-1.86h3.724a1.638 1.638 0 0 0 1.627-1.648v-3.52c.444-.778 1.182-.936 2.057-.806.36.452.905.716 1.481.719A1.95 1.95 0 0 0 42 29.189a1.95 1.95 0 0 0-1.948-1.953zm-24.888 2.097a3.418 3.418 0 0 1 3.395-3.44c.373 0 .744.063 1.096.187v-2.266a1.638 1.638 0 0 0-1.626-1.649h-3.475c-.77-.45-.924-1.198-.797-2.084.82-.678.937-1.893.261-2.715a1.92 1.92 0 0 0-2.707-.262 1.933 1.933 0 0 0 .109 3.06c.105.85-.064 1.566-.809 2.001H7.135a1.638 1.638 0 0 0-1.627 1.648v3.683c-.45.596-1.127.718-1.916.601a1.907 1.907 0 0 0-1.482-.718 1.95 1.95 0 0 0-1.921 1.98 1.95 1.95 0 0 0 1.92 1.926 1.913 1.913 0 0 0 1.565-.82c.754-.096 1.399.037 1.834.612v3.773a1.638 1.638 0 0 0 1.627 1.648h3.475c.77.45.924 1.198.796 2.085a1.933 1.933 0 0 0-.26 2.715c.675.822 1.887.94 2.707.262a1.933 1.933 0 0 0-.11-3.06c-.104-.85.065-1.566.81-2.002h3.474a1.638 1.638 0 0 0 1.627-1.648v-2.265a3.353 3.353 0 0 1-1.096.187 3.418 3.418 0 0 1-3.394-3.44zM11.33.644a1.919 1.919 0 0 1 2.707.262 1.932 1.932 0 0 1-.262 2.715c-.114.8.006 1.486.595 1.942h3.634l.141.007c.837.076 1.49.784 1.486 1.641v3.522c.43.755 1.135.924 1.975.82.357-.513.94-.818 1.564-.82a1.95 1.95 0 0 1 1.91 1.916 1.95 1.95 0 0 1-1.91 1.99 1.907 1.907 0 0 1-1.482-.719c-.875-.13-1.613.028-2.057.807v3.52a1.637 1.637 0 0 1-1.627 1.649h-2.236a3.4 3.4 0 0 0-3.207-4.511 3.4 3.4 0 0 0-3.398 3.4c0 .378.063.753.184 1.11H7.113a1.638 1.638 0 0 1-1.627-1.648v-3.52c-.43-.755-1.135-.925-1.974-.82a1.915 1.915 0 0 1-1.565.82A1.95 1.95 0 0 1 0 12.774a1.95 1.95 0 0 1 1.947-1.953 1.906 1.906 0 0 1 1.482.718c.875.13 1.613-.027 2.057-.806V7.212a1.638 1.638 0 0 1 1.627-1.649h3.722c.568-.44.699-1.094.604-1.858a1.933 1.933 0 0 1-.109-3.06zM29.509 16c.428 0 .783.142 1.066.426.283.284.425.639.425 1.064 0 .426-.142.784-.425 1.075-.283.29-.638.435-1.066.435-.44 0-.801-.145-1.084-.435A1.48 1.48 0 0 1 28 17.49c0-.425.142-.78.425-1.064.283-.284.644-.426 1.084-.426zm-.732-12c1.592 0 2.86.338 3.805 1.015C33.527 5.69 34 6.622 34 7.808c0 .571-.096 1.073-.288 1.506a4.128 4.128 0 0 1-.693 1.098c-.27.3-.625.645-1.066 1.036-.54.474-.941.892-1.204 1.255-.263.363-.394.795-.394 1.297h-2.708l.007-.246c.034-.644.206-1.186.516-1.626.348-.496.856-1.036 1.524-1.622.511-.446.892-.833 1.14-1.16.249-.329.373-.702.373-1.12 0-.586-.241-1.06-.724-1.423-.484-.362-1.13-.544-1.94-.544-1.535 0-2.694.537-3.475 1.611L23 6.552l.189-.24a5.988 5.988 0 0 1 2.177-1.653C26.333 4.219 27.47 4 28.777 4z"/>
</svg>
