<svg xmlns="http://www.w3.org/2000/svg" width="25" height="24" viewBox="0 0 25 24">
    <path fill="#000" fill-opacity=".54" fill-rule="evenodd" d="M12.211.267C5.616.267.267 5.615.267 12.213c0 5.277 3.422 9.754 8.169 11.334.598.11.815-.259.815-.576 0-.283-.01-1.034-.016-2.03-3.322.72-4.023-1.603-4.023-1.603-.544-1.38-1.327-1.747-1.327-1.747-1.085-.74.082-.726.082-.726 1.2.084 1.83 1.231 1.83 1.231 1.065 1.825 2.796 1.298 3.476.992.109-.771.418-1.298.759-1.596-2.653-.301-5.442-1.327-5.442-5.904 0-1.304.466-2.371 1.23-3.206-.123-.302-.533-1.517.118-3.16 0 0 1.002-.322 3.284 1.224a11.442 11.442 0 0 1 2.99-.403c1.016.005 2.037.137 2.991.403 2.28-1.546 3.282-1.225 3.282-1.225.652 1.644.242 2.86.12 3.161.765.835 1.227 1.902 1.227 3.206 0 4.59-2.793 5.599-5.454 5.894.428.37.81 1.098.81 2.213 0 1.596-.014 2.885-.014 3.276 0 .32.215.692.821.575 4.743-1.583 8.163-6.057 8.163-11.333C24.158 5.615 18.809.267 12.21.267"/>
</svg>
