<svg xmlns="http://www.w3.org/2000/svg" width="308" height="165" viewBox="0 0 308 165">
    <g fill="#000" fill-rule="nonzero">
        <path fill-opacity=".54" d="M6.873 43V24.932h5.307V43h6.08V.848h-6.08v18.068H6.873V.848H.793V43h6.08zm31.642 0v-5.307h-9.69V27.037h8.337V21.71h-8.336V11.031h9.69V5.746h-15.77V43h15.77zm19.181 0v-5.307h-9.689V5.746h-6.08V43h15.77zm18.322 0v-5.307h-9.69V5.746h-6.08V43h15.77zm10.846.687c5.83-.014 8.744-2.628 8.744-7.841V13.05c0-5.214-2.915-7.82-8.744-7.82-5.815 0-8.723 2.606-8.723 7.82v22.795c0 5.228 2.908 7.841 8.723 7.841zm0-5.328c-1.762 0-2.643-.838-2.643-2.513V13.05c0-1.676.874-2.514 2.621-2.514h.043c1.762 0 2.643.838 2.643 2.514v22.795c0 1.675-.888 2.513-2.664 2.513zm17.806 11.666l2.32-7.841v-6.166h-7.54V43h2.534l-1.246 7.025h3.932zM127.263 43V.848h-6.08V43h6.08zm18.597 0l1.203-7.906h6.209L154.454 43h6.144l-1.977-13.213-4.275-24.04h-8.336l-4.297 24.083L139.737 43h6.123zm6.617-13.213h-4.64l2.32-15.512 2.32 15.512zM169.037 43V22.096L174.387 43h4.125l5.199-20.904V43h5.822V5.746h-6.08l-7.068 25.524-7.155-25.524h-6.08V43h5.887z"/>
        <path d="M23.244 164.563c13.216 0 19.824-6.723 19.824-20.167v-12.109c0-8.594-4.313-15.967-12.94-22.119-8.625-6.185-12.939-11.41-12.939-15.674v-8.691c0-4.33 1.986-6.494 5.957-6.494h.098c4.004.032 6.006 2.197 6.006 6.494v12.89h13.818v-12.89c0-13.412-6.624-20.117-19.873-20.117-13.216 0-19.824 6.705-19.824 20.117v8.984c0 8.822 4.313 16.309 12.94 22.461 8.626 6.185 12.939 11.589 12.939 16.211v10.937c0 4.33-2.002 6.495-6.006 6.495-4.036 0-6.055-2.165-6.055-6.495v-12.89H3.371v12.89c0 13.412 6.624 20.134 19.873 20.167zM66.35 163V78.332H52.53V163H66.35zm39.248 0l9.716-54.639 4.493-30.029h-13.965l-9.766 65.234-9.717-65.234H72.395l4.492 29.932L86.652 163h18.946zm29.53 0l2.735-17.969h14.112L154.66 163h13.965l-4.492-30.03-9.717-54.638h-18.945l-9.766 54.736L121.213 163h13.916zm15.04-30.03h-10.547l5.274-35.253 5.273 35.254zm65.459 31.593c13.216 0 19.824-6.723 19.824-20.167v-12.109c0-8.594-4.313-15.967-12.94-22.119-8.626-6.185-12.939-11.41-12.939-15.674v-8.691c0-4.33 1.986-6.494 5.957-6.494h.098c4.004.032 6.006 2.197 6.006 6.494v12.89h13.818v-12.89c0-13.412-6.624-20.117-19.873-20.117-13.216 0-19.824 6.705-19.824 20.117v8.984c0 8.822 4.313 16.309 12.94 22.461 8.626 6.185 12.939 11.589 12.939 16.211v10.937c0 4.33-2.002 6.495-6.006 6.495-4.037 0-6.055-2.165-6.055-6.495v-12.89h-13.818v12.89c0 13.412 6.624 20.134 19.873 20.167zM254.191 163l2.735-17.969h14.111L273.723 163h13.964l-4.492-30.03-9.716-54.638h-18.946l-9.765 54.736L240.275 163h13.916zm15.04-30.03h-10.547l5.273-35.253 5.273 35.254zM307.55 163V78.332h-13.819V163h13.819z"/>
    </g>
</svg>
