<svg xmlns="http://www.w3.org/2000/svg" width="23" height="23" viewBox="0 0 23 23">
    <path fill="#000" fill-rule="evenodd" d="M12.36 0c2.055.004 2.482.02 3.516.068 1.196.054 2.013.244 2.728.522a5.51 5.51 0 0 1 1.991 1.297 5.51 5.51 0 0 1 1.297 1.99c.278.716.468 1.533.522 2.73.05 1.074.065 1.493.067 3.768v1.731c-.002 2.276-.018 2.695-.067 3.77-.054 1.196-.244 2.013-.522 2.728a5.51 5.51 0 0 1-1.297 1.991 5.51 5.51 0 0 1-1.99 1.297c-.716.278-1.533.468-2.73.522-1.074.05-1.493.065-3.769.067h-1.73c-2.276-.002-2.695-.018-3.77-.067-1.196-.054-2.013-.244-2.728-.522a5.51 5.51 0 0 1-1.991-1.297 5.51 5.51 0 0 1-1.297-1.99c-.278-.716-.468-1.533-.522-2.73C.02 14.843.004 14.416 0 12.362v-2.24C.004 8.067.02 7.64.068 6.606.122 5.41.312 4.593.59 3.878a5.51 5.51 0 0 1 1.297-1.991A5.51 5.51 0 0 1 3.877.59C4.594.312 5.41.122 6.608.068 7.64.02 8.066.004 10.12 0zm-.019 2.026h-2.2c-2.015.003-2.42.018-3.442.065-1.096.05-1.692.233-2.088.387-.524.204-.899.447-1.292.84a3.482 3.482 0 0 0-.841 1.293c-.154.396-.337.992-.387 2.088-.047 1.021-.062 1.427-.065 3.442v2.2c.003 2.015.018 2.42.065 3.442.05 1.096.233 1.691.387 2.087.204.525.448.9.84 1.293.394.393.769.637 1.293.84.396.155.992.338 2.088.388 1.103.05 1.487.064 3.957.065h1.17c2.47-.001 2.854-.015 3.957-.065 1.096-.05 1.691-.233 2.087-.387.525-.204.9-.448 1.293-.841.393-.393.637-.768.84-1.293.155-.396.338-.99.388-2.087.05-1.103.064-1.488.065-3.958v-1.168c-.001-2.47-.015-2.855-.065-3.958-.05-1.096-.233-1.692-.387-2.088a3.482 3.482 0 0 0-.841-1.292 3.482 3.482 0 0 0-1.293-.841c-.396-.154-.99-.337-2.087-.387-1.022-.047-1.427-.062-3.442-.065zm-1.1 3.443a5.772 5.772 0 1 1 0 11.544 5.772 5.772 0 0 1 0-11.544zm0 2.025a3.747 3.747 0 1 0 0 7.494 3.747 3.747 0 0 0 0-7.494zm6-3.602a1.349 1.349 0 1 1 0 2.697 1.349 1.349 0 0 1 0-2.697z" opacity=".54"/>
</svg>
