<svg xmlns="http://www.w3.org/2000/svg" width="42" height="42" viewBox="0 0 42 42">
    <path fill="#FF9800" fill-rule="nonzero" d="M14.75 20.48a2.605 2.605 0 0 0 0 5.207 2.605 2.605 0 0 0 0-5.208zm12.5 0a2.605 2.605 0 0 0 0 5.207 2.605 2.605 0 0 0 0-5.208zM21 .166C9.5.167.167 9.5.167 21 .167 32.5 9.5 41.833 21 41.833c11.5 0 20.833-9.333 20.833-20.833C41.833 9.5 32.5.167 21 .167zm0 37.5c-9.188 0-16.667-7.48-16.667-16.667 0-.604.042-1.208.104-1.792A20.962 20.962 0 0 0 15.293 8.021c3.77 5.333 9.979 8.812 17 8.812 1.625 0 3.187-.187 4.687-.541.438 1.479.688 3.062.688 4.708 0 9.188-7.48 16.667-16.667 16.667z"/>
</svg>
