<svg xmlns="http://www.w3.org/2000/svg" width="23" height="23" viewBox="0 0 23 23">
    <path fill="#000" fill-opacity=".54" fill-rule="evenodd" d="M23 14.1V23h-4.93v-8.303c0-2.085-.713-3.508-2.497-3.508-1.363 0-2.173.958-2.53 1.886-.13.332-.163.793-.163 1.258V23H7.949s.066-14.063 0-15.519h4.931v2.2c-.01.016-.024.033-.032.05h.032v-.05c.655-1.056 1.824-2.564 4.443-2.564C20.568 7.117 23 9.334 23 14.1zM2.79 0C1.103 0 0 1.158 0 2.681c0 1.49 1.072 2.682 2.725 2.682h.033c1.72 0 2.789-1.192 2.789-2.682C5.514 1.158 4.477 0 2.79 0zM.293 23h4.93V7.481H.292V23z"/>
</svg>
