<svg xmlns="http://www.w3.org/2000/svg" xmlns:xlink="http://www.w3.org/1999/xlink" width="87" height="26" viewBox="0 0 87 26">
    <defs>
        <path id="a" d="M6.358 25.272c3.672 0 5.576-2.176 5.576-5.984 0-2.72-.986-4.692-4.114-7.446C5.372 9.7 4.624 8.408 4.624 6.674c0-1.7.68-2.346 1.87-2.346s1.87.646 1.87 2.346v.986H11.9v-.748c0-3.808-1.87-5.984-5.508-5.984S.884 3.104.884 6.912c0 2.72.986 4.692 4.114 7.446 2.448 2.142 3.196 3.434 3.196 5.168 0 1.7-.748 2.312-1.938 2.312s-1.938-.612-1.938-2.312v-1.7H.782v1.462c0 3.808 1.904 5.984 5.576 5.984zM18.288 25V1.2h-3.74V25h3.74zm11.454 0l3.672-23.8H29.98l-2.822 19.414h-.068L24.268 1.2h-3.774L24.166 25h5.576zm7.477 0l.646-4.318h4.59L43.1 25h3.774L43.067 1.2h-5.474L33.785 25h3.434zm4.726-7.548H38.34l1.768-12.036h.068l1.768 12.036zm17.876 7.82c3.672 0 5.576-2.176 5.576-5.984 0-2.72-.986-4.692-4.114-7.446-2.448-2.142-3.196-3.434-3.196-5.168 0-1.7.68-2.346 1.87-2.346s1.87.646 1.87 2.346v.986h3.536v-.748c0-3.808-1.87-5.984-5.508-5.984s-5.508 2.176-5.508 5.984c0 2.72.986 4.692 4.114 7.446 2.448 2.142 3.196 3.434 3.196 5.168 0 1.7-.748 2.312-1.938 2.312s-1.938-.612-1.938-2.312v-1.7h-3.536v1.462c0 3.808 1.904 5.984 5.576 5.984zM70.46 25l.646-4.318h4.59L76.341 25h3.774L76.307 1.2h-5.474L67.025 25h3.434zm4.726-7.548h-3.604L73.35 5.416h.068l1.768 12.036zM86.062 25V1.2h-3.74V25h3.74z"/>
    </defs>
    <g fill="#000" fill-rule="nonzero">
        <use xlink:href="#a"/>
        <use xlink:href="#a"/>
    </g>
</svg>
