<svg xmlns="http://www.w3.org/2000/svg" width="48" height="46" viewBox="0 0 48 46">
    <path fill="#FF9800" fill-rule="evenodd" d="M35.436 0a4.252 4.252 0 0 1 4.256 4.247A4.255 4.255 0 0 1 35.436 8.5c-.329 0-.642-.05-.947-.125l-.227-.06-3.523 5.922a11.012 11.012 0 0 1 4.327 8.272l4.633.444c.608-1.578 2.168-2.713 4.01-2.713 2.37 0 4.291 1.855 4.291 4.143 0 2.283-1.921 4.137-4.291 4.137-2.067 0-3.778-1.416-4.185-3.298l-.037-.196-4.525-.428c-.61 4.202-3.591 7.634-7.55 8.909l.87 3.916c2.232.07 4.026 1.954 4.026 4.284 0 2.37-1.861 4.293-4.152 4.293-2.3 0-4.156-1.923-4.156-4.293 0-1.582.833-2.947 2.065-3.691l.179-.103-.876-3.956c-.449.055-.905.083-1.369.083a11.08 11.08 0 0 1-10.086-6.471l-5.096 1.717c.01.098.03.195.03.297 0 2.462-1.98 4.457-4.426 4.457C1.977 34.04 0 32.045 0 29.583c0-2.461 1.977-4.45 4.421-4.45 1.467 0 2.77.722 3.573 1.832l.13.188 5.07-1.712a11.048 11.048 0 0 1-.27-2.442c0-2.422.783-4.663 2.113-6.484l-1.928-1.867a4.222 4.222 0 0 1-2.297.687c-2.403 0-4.35-1.993-4.35-4.445 0-2.459 1.947-4.45 4.35-4.45 2.402 0 4.348 1.991 4.348 4.45 0 .687-.17 1.33-.446 1.91l-.108.215 1.91 1.848a11.056 11.056 0 0 1 7.483-2.903c1.77 0 3.441.413 4.924 1.147l3.492-5.87a4.246 4.246 0 0 1-1.23-2.99c0-2.35 1.9-4.247 4.251-4.247zM24 23.901c-2.333 0-6.965 1.229-7 3.47C18.505 29.559 21.083 31 24 31s5.495-1.442 7-3.628c-.035-2.242-4.678-3.47-7-3.47zM24 15c-1.937 0-3.5 1.51-3.5 3.38 0 1.87 1.563 3.38 3.5 3.38s3.5-1.51 3.5-3.38c0-1.87-1.563-3.38-3.5-3.38z"/>
</svg>
